<?xml version="1.0" standalone="no"?>
<!DOCTYPE svg PUBLIC "-//W3C//DTD SVG 20010904//EN"
 "http://www.w3.org/TR/2001/REC-SVG-20010904/DTD/svg10.dtd">
<svg version="1.0" xmlns="http://www.w3.org/2000/svg"
 width="700.000000pt" height="700.000000pt" viewBox="0 0 700.000000 700.000000"
 preserveAspectRatio="xMidYMid meet">
<metadata>
Created by potrace 1.14, written by Peter Selinger 2001-2017
</metadata>
<g transform="translate(0.000000,700.000000) scale(0.100000,-0.100000)"
fill="#000000" stroke="none">
<path d="M1543 5516 l-28 -24 -5 -374 c-3 -205 -3 -1078 -2 -1940 l4 -1567 24
-25 25 -24 347 -3 c191 -2 1064 -2 1939 0 l1593 3 24 24 24 25 4 1567 c1 862
1 1735 -2 1940 l-5 374 -28 24 -28 24 -1929 0 -1929 0 -28 -24z m3755 -948
l-3 -93 -1795 0 -1795 0 -3 93 -3 92 1801 0 1801 0 -3 -92z m-2798 -799 c53
-30 74 -73 68 -138 -14 -146 -212 -177 -268 -41 -16 39 -8 115 16 142 53 59
120 73 184 37z m2090 0 c49 -28 70 -66 70 -128 0 -42 -5 -56 -30 -85 -97 -111
-264 -37 -247 110 11 100 117 153 207 103z m-1047 -55 l37 -66 -37 -69 c-21
-38 -40 -69 -43 -69 -3 0 -22 31 -43 69 l-37 69 37 66 c21 36 40 66 43 66 3 0
22 -30 43 -66z m-973 -1674 l0 -290 -140 0 -140 0 0 290 0 290 140 0 140 0 0
-290z"/>
</g>
</svg>
